<?xml version="1.0" standalone="no"?>
<!DOCTYPE svg PUBLIC "-//W3C//DTD SVG 20010904//EN"
 "http://www.w3.org/TR/2001/REC-SVG-20010904/DTD/svg10.dtd">
<svg version="1.0" xmlns="http://www.w3.org/2000/svg"
 width="500.000000pt" height="400.000000pt" viewBox="0 0 500.000000 400.000000"
 preserveAspectRatio="xMidYMid meet">
<metadata>
Created by potrace 1.15, written by Peter Selinger 2001-2017
</metadata>
<g transform="translate(0.000000,400.000000) scale(0.100000,-0.100000)"
fill="#000000" stroke="none">
<path d="M2169 3962 c-21 -18 -37 -38 -34 -43 4 -5 0 -7 -7 -4 -7 3 -38 -20
-68 -50 -30 -31 -68 -65 -84 -77 l-28 -21 11 21 c7 12 16 22 20 22 5 0 11 8
14 18 4 9 14 28 24 41 17 23 17 24 -2 14 -11 -6 -33 -13 -50 -17 l-30 -6 25
14 c14 8 29 12 34 8 5 -3 6 2 3 12 -6 14 -3 17 8 12 9 -3 13 -2 10 4 -3 6 1
13 10 16 9 4 14 12 12 18 -3 6 8 12 26 13 l30 2 -29 -32 -29 -32 32 29 c18 16
30 33 27 37 -2 4 4 13 13 19 16 10 16 11 -2 5 -11 -4 -26 -8 -32 -8 -7 0 -13
-3 -13 -6 0 -3 -11 -7 -25 -7 -15 -1 -22 2 -18 9 3 6 1 7 -6 3 -6 -4 -9 -11
-6 -16 6 -9 -23 -22 -35 -15 -4 3 -6 -4 -3 -15 4 -16 2 -19 -11 -14 -11 4 -16
0 -17 -12 0 -11 -3 -14 -6 -6 -8 19 -22 14 -66 -23 -34 -29 -49 -35 -91 -36
-34 -1 -41 -3 -21 -6 49 -7 49 -18 -2 -63 -26 -24 -41 -40 -33 -35 8 5 12 4 7
0 -4 -5 -13 -10 -20 -11 -12 -2 -86 -49 -97 -61 -3 -4 12 3 33 15 58 33 63 27
17 -25 -22 -26 -39 -52 -36 -59 5 -13 -17 -37 -26 -28 -3 3 -19 -12 -35 -33
-43 -55 -95 -133 -89 -133 3 0 17 17 31 37 14 21 25 32 25 25 0 -7 5 -10 11
-6 8 4 7 9 -2 15 -11 7 -11 9 -1 9 7 0 10 4 7 10 -3 6 1 7 9 4 9 -3 16 -8 16
-10 0 -3 -19 -30 -41 -61 -23 -31 -36 -52 -29 -48 10 6 12 4 6 -10 -20 -52
-27 -108 -14 -117 10 -6 9 -8 -4 -8 -17 0 -20 -11 -34 -100 l-6 -44 -20 24
c-25 31 -19 89 17 159 14 28 21 52 15 56 -10 6 -2 36 14 47 8 5 7 8 -1 8 -19
0 -36 -39 -24 -54 8 -9 6 -18 -5 -32 -15 -18 -15 -18 -11 4 3 13 1 20 -5 16
-5 -3 -7 -17 -3 -31 4 -18 2 -23 -6 -17 -7 4 -9 3 -5 -4 3 -6 2 -13 -3 -16
-15 -10 -22 -93 -11 -135 6 -22 20 -47 32 -55 20 -14 21 -23 19 -123 -1 -101
-20 -212 -44 -258 -8 -17 -6 -17 16 4 l26 24 -4 -54 c-4 -45 -1 -40 14 31 l17
85 13 -83 c13 -80 23 -103 36 -82 3 5 18 11 33 11 17 1 21 3 10 6 -23 6 -23
26 1 47 13 12 27 15 47 10 27 -7 27 -7 6 -15 -13 -5 -20 -14 -16 -23 3 -8 1
-17 -5 -21 -8 -4 -8 -13 1 -28 9 -18 9 -20 -3 -11 -12 9 -20 10 -46 5 -4 0 2
-7 12 -15 17 -12 22 -28 24 -90 1 -11 4 -16 7 -13 4 3 15 -5 26 -18 11 -14 24
-23 29 -20 5 4 9 1 9 -5 0 -6 4 -9 9 -6 5 3 14 -1 20 -8 20 -24 -10 -14 -66
22 -27 18 -54 32 -59 32 -5 0 -27 14 -48 30 -41 31 -53 32 -42 5 3 -9 11 -13
17 -9 8 4 9 3 5 -5 -10 -16 13 -43 31 -37 8 3 11 2 8 -4 -3 -5 14 -24 38 -42
62 -46 81 -73 63 -88 -12 -9 -14 -7 -12 7 2 10 -4 25 -13 33 -32 30 -102 82
-105 79 -2 -2 -13 -23 -25 -46 -12 -24 -26 -43 -31 -43 -6 0 -1 -9 10 -20 11
-11 20 -24 20 -29 0 -5 16 -30 35 -55 19 -25 32 -46 29 -46 -3 0 2 -10 10 -22
9 -12 16 -27 16 -33 0 -5 -19 18 -41 52 -35 53 -44 61 -60 53 -12 -7 -20 -7
-24 0 -4 6 -3 10 2 9 18 -3 33 1 33 10 0 16 -35 6 -60 -17 -18 -16 -26 -19
-32 -10 -5 9 -8 8 -8 -4 0 -16 10 -22 31 -20 3 1 5 -10 3 -24 -1 -13 2 -22 7
-18 8 5 13 -10 10 -29 -1 -5 3 -6 8 -3 5 4 13 -4 17 -16 5 -17 161 -252 190
-287 2 -2 22 4 44 13 l41 16 38 -30 c64 -52 135 -63 201 -31 35 17 39 17 43 2
4 -14 5 -14 6 2 2 31 61 124 86 135 31 14 31 21 3 -140 l-21 -128 26 -21 c32
-25 34 -40 7 -64 -20 -18 -25 -49 -14 -79 7 -18 34 -22 34 -5 0 5 5 7 10 4 6
-3 10 -18 10 -33 0 -15 5 -34 10 -42 7 -11 10 7 9 60 -1 103 -10 181 -19 175
-5 -3 -6 -15 -3 -28 4 -17 0 -15 -21 12 -29 38 -31 66 -11 126 l13 40 2 -35
c1 -19 1 -42 0 -50 -1 -10 2 -12 9 -5 5 6 11 62 12 126 1 113 2 117 26 128 13
6 30 11 37 11 8 0 19 7 26 15 20 24 30 18 30 -17 1 -32 1 -32 13 -10 13 22 14
22 29 5 9 -10 23 -34 30 -53 l15 -35 24 40 c28 44 189 351 189 359 0 3 -28
-23 -62 -57 -35 -35 -79 -75 -99 -90 l-36 -26 -11 22 c-25 49 -47 156 -45 217
1 62 32 228 51 279 10 27 9 29 62 -119 18 -50 19 -52 13 -15 -3 22 -14 73 -24
114 -11 41 -19 80 -19 88 0 18 29 87 34 82 11 -11 56 -244 57 -293 2 -68 19
-64 19 4 0 27 4 93 10 147 5 54 12 128 16 165 5 67 6 68 56 108 64 51 98 53
126 8 29 -48 65 -186 59 -224 -3 -18 -32 -72 -64 -121 -61 -92 -76 -118 -93
-168 l-11 -30 24 30 25 29 13 -59 c13 -57 14 -58 23 -32 13 37 23 34 35 -10
14 -50 13 -90 -4 -138 -12 -35 -12 -38 1 -20 8 11 20 37 26 57 6 21 14 38 17
38 3 0 14 -19 24 -43 9 -24 31 -59 47 -78 l30 -34 -15 43 c-8 23 -17 77 -21
118 -6 63 -5 76 7 72 18 -6 38 -47 48 -100 6 -30 9 -35 11 -18 2 25 2 25 15
-5 14 -30 14 -30 15 25 l0 55 34 -50 c19 -28 48 -61 65 -74 17 -13 31 -29 31
-35 0 -6 10 -12 21 -13 20 -2 21 -1 3 12 -27 19 -13 27 18 11 25 -13 25 -13
12 13 -17 32 -18 114 -2 144 11 21 13 18 39 -37 l27 -58 0 53 c-1 87 0 97 13
79 9 -12 10 -11 6 7 -6 27 21 123 34 123 5 0 9 -21 10 -47 1 -52 16 -116 18
-77 2 33 14 37 34 12 18 -22 18 -22 8 -1 -12 24 -13 95 -1 133 8 28 12 22 28
-45 l10 -40 1 34 c1 33 1 33 26 17 35 -23 38 -20 16 12 -30 42 -33 64 -11 100
14 22 27 32 44 32 14 0 37 11 52 25 15 14 22 25 15 25 -6 0 -14 -7 -17 -15 -4
-8 -17 -15 -31 -15 -20 0 -23 3 -14 13 6 8 8 17 4 20 -3 4 -1 7 5 7 6 0 9 7 6
15 -4 8 1 17 9 21 9 3 23 23 31 45 9 21 19 39 22 39 6 0 -4 -82 -13 -106 -4
-10 0 -12 11 -8 23 9 47 59 39 80 -4 10 -2 15 3 11 6 -4 10 26 11 79 0 46 -3
87 -8 90 -5 3 -9 11 -9 17 0 7 4 6 11 -3 7 -11 9 -3 6 30 -3 25 -7 54 -10 65
-3 11 -6 27 -6 35 -1 13 -2 13 -11 0 -5 -8 -10 -10 -10 -5 0 6 4 16 9 24 7 11
14 7 30 -20 12 -19 21 -38 21 -43 0 -5 2 -7 5 -5 2 3 -2 26 -10 52 -8 26 -11
47 -8 47 3 0 0 7 -7 15 -6 8 -9 19 -6 24 4 5 1 13 -5 16 -5 4 -8 13 -5 21 3 7
1 16 -4 19 -5 3 -9 13 -9 23 1 9 -3 28 -7 41 -5 16 -4 22 4 17 6 -3 13 -2 16
3 3 5 -1 11 -9 15 -8 3 -24 20 -35 38 -19 32 -20 32 -20 8 -1 -23 -2 -23 -15
8 -18 40 -51 88 -41 58 5 -15 1 -14 -18 7 -14 15 -27 27 -30 27 -11 0 6 -29
20 -34 9 -3 12 -11 8 -17 -4 -7 -3 -9 3 -6 13 8 38 -20 46 -51 5 -20 3 -22
-11 -10 -14 10 -14 9 1 -8 10 -12 17 -25 15 -30 -1 -5 8 -28 20 -51 12 -23 22
-45 22 -48 0 -14 -58 55 -69 83 -13 31 -31 43 -31 22 0 -5 4 -10 9 -10 10 0
25 -36 30 -69 0 -6 12 -22 26 -37 14 -15 24 -33 21 -40 -3 -7 -1 -14 4 -16 12
-4 21 -130 11 -146 -5 -8 -17 17 -32 70 -13 46 -24 88 -24 93 0 6 -6 16 -13
24 -8 8 -11 22 -9 33 3 10 1 16 -4 12 -5 -3 -9 1 -9 10 0 8 5 16 11 18 6 2 1
15 -11 31 -18 22 -20 30 -10 43 11 12 10 13 -4 8 -20 -8 -20 -21 -1 -57 8 -15
10 -25 6 -23 -5 3 -5 -14 0 -37 4 -23 8 -53 7 -67 0 -14 -4 -5 -9 20 -20 97
-32 132 -40 118 -7 -10 -9 -8 -9 5 0 10 -5 15 -11 12 -6 -4 -8 -13 -5 -20 2
-7 -3 -15 -12 -18 -9 -3 -26 -8 -36 -13 -16 -6 -18 -4 -13 9 3 9 1 19 -5 23
-7 4 -8 -10 -4 -45 3 -28 8 -75 11 -103 4 -52 4 -52 -6 -13 -20 82 -31 112
-50 135 -12 15 -17 18 -13 8 3 -10 2 -18 -4 -18 -6 0 -23 27 -38 60 -18 39
-30 56 -35 48 -5 -7 -2 -16 6 -20 7 -5 16 -23 20 -41 4 -17 9 -41 12 -52 5
-17 4 -18 -10 -6 -9 7 -16 16 -15 19 0 4 0 22 -1 40 -1 36 -20 45 -22 10 -1
-18 -3 -17 -8 7 -4 17 -5 -42 -3 -131 3 -110 1 -167 -7 -180 -10 -16 -10 -15
-5 11 5 29 5 29 -10 11 -14 -17 -16 -18 -16 -3 0 9 -5 17 -11 17 -7 0 -9 18
-5 53 3 32 2 40 -2 22 -5 -20 -9 5 -10 75 -1 58 -6 130 -11 160 l-9 55 -1 -75
c-1 -68 -3 -73 -16 -56 -15 19 -15 19 -15 -1 0 -12 5 -24 10 -26 6 -3 5 -4 -2
-3 -7 1 -16 22 -19 47 -5 36 -6 38 -8 14 -3 -30 -3 -30 -10 -5 -5 14 -6 35 -4
47 2 12 -1 25 -7 28 -6 4 -10 -14 -10 -48 0 -29 -3 -57 -7 -61 -5 -4 -8 -13
-8 -18 0 -6 -6 -13 -12 -15 -10 -4 -13 14 -15 64 -1 37 -2 75 -4 83 -1 8 -2
37 -3 63 -1 34 -4 46 -13 41 -7 -5 -8 -3 -4 5 5 7 5 33 1 59 -6 38 -9 43 -17
28 -6 -11 -7 -40 -2 -74 4 -32 9 -66 10 -77 1 -11 7 -45 12 -75 6 -33 7 -59 1
-65 -5 -5 -9 0 -10 15 -3 46 -6 66 -17 100 -20 62 -23 120 -7 173 8 28 15 58
14 66 0 9 -13 -24 -28 -74 -15 -49 -34 -106 -42 -125 -11 -26 -13 -47 -6 -80
4 -25 9 -55 10 -67 1 -13 6 -23 11 -23 4 0 5 -7 2 -16 -3 -8 -2 -13 2 -10 4 2
15 -13 24 -35 9 -22 12 -37 7 -34 -5 4 -9 1 -9 -4 0 -6 5 -11 12 -11 6 0 8 -3
4 -7 -10 -10 -63 53 -92 109 -19 38 -22 52 -14 74 9 23 8 25 -3 15 -20 -16
-40 35 -33 85 4 30 4 33 -3 14 -9 -24 -9 -24 -10 8 -1 18 -5 31 -10 28 -5 -4
-1 12 10 33 10 22 23 42 28 46 6 3 7 13 4 22 -4 10 -2 14 4 10 7 -5 9 1 6 14
-6 21 -7 21 -20 -5 -8 -15 -11 -31 -8 -36 3 -6 3 -10 -2 -10 -4 0 -19 -24 -33
-53 -25 -52 -58 -94 -72 -90 -4 2 -4 -5 -1 -14 4 -11 3 -14 -6 -9 -7 5 -10 2
-9 -6 2 -7 -2 -12 -9 -11 -7 2 -10 -3 -8 -10 2 -6 -9 -22 -24 -34 l-28 -22 3
26 c1 14 7 30 13 36 16 16 14 -6 -1 -23 -11 -12 -10 -12 5 -1 10 8 15 21 12
31 -3 9 3 28 13 41 34 43 43 67 30 75 -6 4 -8 3 -5 -2 3 -6 1 -16 -4 -24 -13
-21 -6 16 11 55 7 17 14 38 15 48 1 11 6 22 11 25 6 4 11 20 12 36 1 16 10 38
19 48 9 10 14 21 10 24 -7 8 -102 -115 -101 -131 1 -6 -8 -12 -20 -13 -17 -1
-18 1 -6 8 10 7 11 10 3 10 -16 0 -74 -80 -67 -91 3 -5 10 -7 15 -4 5 3 6 -1
3 -10 -7 -18 -43 -39 -52 -31 -3 3 -1 6 4 6 5 0 10 8 10 18 1 9 5 30 9 46 5
19 4 27 -2 23 -6 -4 -14 0 -17 9 -8 21 -8 26 2 20 5 -3 7 9 4 27 -2 20 0 27 5
20 6 -8 9 3 8 30 -1 23 -5 40 -11 37 -5 -3 -8 -13 -8 -22 1 -10 -3 -18 -8 -18
-6 0 -8 -7 -4 -15 3 -9 -1 -51 -10 -95 -8 -44 -14 -86 -13 -93 1 -6 -1 -20 -6
-30 -4 -9 -5 -26 -2 -37 3 -11 1 -20 -4 -20 -5 0 -9 -12 -9 -27 0 -16 -5 -35
-11 -43 -7 -11 -9 -7 -8 20 3 79 0 93 -18 85 -13 -4 -12 -1 5 15 17 16 22 32
22 68 0 26 3 64 6 85 6 34 5 37 -12 30 -17 -6 -17 -5 -5 10 11 14 16 15 25 4
6 -7 10 -10 9 -8 -2 2 5 10 15 17 16 12 16 13 -3 14 -18 1 -19 1 -2 11 19 11
23 30 6 27 -6 -2 -14 3 -17 11 -3 10 0 12 11 8 12 -4 15 -1 11 11 -4 13 -3 14
4 4 7 -10 13 -7 27 15 l18 28 -21 -19 c-15 -13 -22 -15 -22 -6 0 7 -9 1 -21
-14 -12 -15 -18 -34 -15 -43 5 -13 4 -14 -9 -3 -9 8 -15 9 -15 2 0 -6 -11 -23
-25 -38 -13 -14 -22 -30 -19 -35 3 -5 -2 -6 -10 -3 -12 4 -16 0 -16 -16 0 -11
-4 -18 -10 -15 -5 3 -11 -1 -11 -9 -3 -32 -4 -36 -11 -36 -5 0 -11 0 -15 0 -4
0 -2 5 5 12 7 7 12 18 12 26 0 23 -27 -4 -34 -34 -4 -14 -11 -22 -16 -19 -7 4
-6 13 0 26 8 14 7 19 -2 19 -6 0 -3 6 7 14 11 8 27 13 37 11 19 -4 52 40 43
56 -4 5 -3 9 2 8 20 -3 34 2 28 11 -3 6 1 10 9 10 9 0 13 6 10 14 -3 9 21 42
63 85 63 63 72 85 13 29 -13 -13 -28 -22 -33 -20 -5 1 -6 -2 -3 -7 3 -5 -1
-14 -9 -21 -8 -7 -15 -9 -15 -4 0 4 -16 -7 -35 -26 -19 -18 -32 -37 -29 -41 3
-5 -1 -6 -9 -3 -8 3 -17 -2 -20 -10 -4 -9 -12 -16 -19 -16 -7 0 -19 -9 -26
-20 -7 -11 -18 -20 -25 -20 -6 0 2 13 18 28 17 15 31 29 32 32 22 54 35 79 53
98 11 12 18 27 15 32 -3 5 0 7 7 5 8 -3 25 6 38 20 30 31 23 31 -31 0 -24 -14
-38 -25 -30 -25 11 0 10 -5 -5 -19 -10 -10 -25 -16 -33 -13 -10 4 -10 7 3 14
9 5 14 13 11 18 -3 5 5 16 17 25 23 17 23 17 -7 9 -16 -4 -42 -8 -57 -7 -15 0
-25 -4 -22 -9 3 -5 -6 -6 -22 -2 -21 5 -25 4 -19 -6 5 -8 4 -11 -3 -6 -6 3
-17 -1 -25 -9 -9 -8 -25 -15 -36 -15 -12 0 -20 -3 -18 -7 2 -9 -6 -13 -24 -13
-6 0 8 21 31 48 23 26 47 46 54 44 6 -2 8 0 4 4 -4 4 16 22 44 41 29 18 46 33
37 33 -8 0 -25 -7 -37 -16 -12 -8 -22 -11 -22 -6 0 6 17 17 38 26 31 14 33 16
10 13 -16 -2 -28 -3 -28 -1 0 9 58 32 65 26 5 -4 5 -2 1 5 -3 6 1 13 11 16 10
2 1 4 -20 3 -28 0 -48 -9 -78 -34z m-10 -1015 c17 -43 47 -103 66 -132 29 -45
32 -55 20 -65 -8 -7 -13 -15 -11 -19 2 -3 -11 -7 -29 -8 l-34 -3 -41 126 c-34
106 -40 138 -39 207 l0 82 18 -55 c10 -30 32 -90 50 -133z m-212 41 l20 -53
-76 -11 c-42 -6 -84 -15 -95 -19 -15 -7 -17 -5 -13 11 3 10 9 36 13 57 9 51
66 81 77 40 4 -14 5 -12 6 5 1 16 7 22 25 22 19 0 27 -10 43 -52z m-189 4 c0
-4 1 -41 2 -82 2 -65 4 -71 13 -47 6 15 18 27 26 27 14 0 14 -1 1 -10 -8 -5
-11 -10 -6 -10 5 0 2 -8 -5 -17 -12 -14 -12 -16 1 -11 55 20 58 20 65 -11 8
-37 40 -75 55 -66 6 4 9 13 6 20 -2 7 2 16 10 19 8 3 14 19 14 40 0 28 4 34
25 38 22 5 29 -2 56 -49 42 -73 77 -113 100 -113 24 0 24 2 -1 50 -11 22 -19
40 -17 40 5 0 69 -102 65 -104 -100 -62 -150 -87 -186 -89 -29 -1 -41 -6 -37
-14 3 -7 7 -19 10 -26 3 -7 -1 -21 -9 -32 -14 -19 -15 -17 -9 17 5 34 3 39
-21 48 -15 5 -46 10 -69 11 -97 2 -159 43 -161 107 -1 17 -5 30 -10 29 -5 -1
-11 4 -14 12 -3 9 0 11 7 6 9 -5 11 4 8 34 -2 23 0 41 5 41 4 0 8 -4 8 -8 0
-5 18 -28 41 -53 l40 -44 -14 35 c-8 19 -15 40 -16 45 -6 32 -26 91 -33 100
-4 5 -7 23 -7 40 l2 30 7 -35 c6 -30 8 -31 9 -8 2 39 11 57 27 51 7 -3 13 -8
12 -11z"/>
<path d="M3095 2001 c-10 -33 -46 -47 -170 -69 -186 -34 -394 -98 -492 -153
-19 -11 -30 -13 -28 -6 3 7 1 18 -4 26 -7 11 -18 8 -60 -14 -71 -39 -78 -50
-85 -134 -3 -40 -9 -77 -12 -82 -3 -5 0 -9 5 -9 6 0 11 10 11 22 0 12 3 18 7
15 3 -4 8 -105 9 -224 2 -120 3 -219 4 -221 0 -1 22 9 49 22 27 14 51 22 55
19 3 -4 6 -2 6 4 0 6 15 10 34 10 23 -1 32 -5 29 -14 -6 -17 9 -17 26 -1 11
11 12 10 6 -1 -7 -11 -4 -13 11 -6 10 5 29 9 41 9 18 1 21 6 19 33 -1 18 1 30
6 27 4 -3 8 0 8 5 0 7 27 11 68 11 48 0 79 6 107 20 34 17 36 20 15 20 -15 0
-20 3 -14 8 7 4 13 16 15 27 6 27 132 63 156 44 13 -12 13 -14 -1 -19 -24 -8
-3 -30 32 -33 18 -1 32 -6 32 -12 0 -5 4 -4 9 4 7 11 11 9 20 -8 7 -12 10 -25
7 -30 -3 -4 1 -17 9 -27 8 -10 15 -29 15 -41 0 -13 4 -23 10 -23 15 0 42 -72
36 -95 -8 -33 6 -45 28 -24 11 11 14 19 8 19 -6 0 -17 19 -24 43 -16 56 -17
60 -26 149 -7 72 -6 77 13 82 30 8 37 7 29 -6 -4 -7 -3 -8 5 -4 6 4 9 11 6 16
-3 4 13 11 35 15 22 4 40 10 40 15 0 4 14 10 30 14 23 4 45 -2 85 -23 51 -27
55 -28 55 -10 0 11 -12 52 -26 92 -17 49 -28 108 -34 182 -9 113 -31 218 -55
266 -12 22 -23 28 -70 34 -47 5 -58 11 -65 31 -11 29 -17 30 -25 5z"/>
<path d="M2411 1151 c-8 -5 -21 -7 -30 -4 -13 4 -12 1 2 -10 12 -10 15 -17 7
-22 -6 -4 -9 -13 -6 -21 4 -9 -2 -14 -15 -14 -27 0 -19 -24 9 -28 12 -2 22
-10 22 -17 0 -12 5 -12 23 -4 16 7 34 7 58 1 21 -6 26 -11 14 -11 -17 -1 -17
-3 -5 -11 12 -8 9 -10 -12 -10 -15 0 -30 -4 -33 -10 -3 -5 -14 -10 -24 -10
-28 0 -75 -27 -59 -33 9 -4 7 -6 -4 -6 -11 -1 -18 -9 -18 -21 0 -10 -8 -24
-17 -30 -14 -9 -10 -10 20 -5 24 4 37 3 33 -3 -3 -6 1 -13 10 -16 26 -10 36
-7 30 9 -3 8 3 19 12 25 12 8 14 13 5 16 -22 9 -15 33 7 27 14 -4 20 -14 20
-35 0 -23 3 -28 13 -20 6 5 30 12 52 14 22 1 43 7 47 13 4 5 10 6 14 2 14 -14
-16 -34 -45 -29 -16 2 -32 -1 -35 -7 -4 -6 -17 -11 -30 -11 -12 0 -26 -4 -32
-10 -5 -5 -23 -11 -39 -12 -17 -1 -43 -12 -60 -24 -34 -24 -65 -23 -40 3 8 8
15 20 15 26 0 7 -4 6 -10 -3 -5 -8 -10 -10 -10 -5 0 6 -5 3 -11 -5 -8 -11 -9
-8 -4 15 16 74 16 95 1 126 -8 19 -17 50 -18 69 -3 29 -6 22 -22 -45 -23 -102
-35 -144 -52 -177 -16 -31 -19 -62 -4 -38 8 13 10 12 10 -3 0 -10 -6 -20 -14
-23 -16 -6 -11 -34 6 -34 5 0 6 5 3 10 -3 6 2 13 12 17 10 4 23 12 28 19 6 6
23 14 38 17 26 4 27 3 11 -14 -19 -22 -10 -41 19 -38 12 1 31 -2 41 -6 18 -8
18 -9 1 -21 -17 -13 -15 -15 19 -29 46 -20 61 -16 61 16 0 21 4 24 34 21 19
-2 37 1 41 8 8 13 43 8 69 -9 12 -8 12 -12 -3 -26 -16 -17 -16 -19 13 -33 25
-11 29 -18 20 -28 -12 -15 -4 -21 40 -27 24 -4 43 -27 22 -27 -6 0 -19 -9 -29
-20 -23 -24 -18 -70 7 -70 13 0 13 -2 2 -9 -7 -5 -9 -11 -4 -14 8 -5 9 -49 4
-142 -2 -32 -4 -36 -11 -20 -8 18 -9 17 -9 -7 -1 -26 -21 -42 -21 -17 0 6 -6
9 -14 6 -11 -4 -14 4 -14 39 0 31 4 44 14 44 8 0 14 7 14 15 0 8 -4 15 -10 15
-5 0 -10 -5 -10 -11 0 -5 -4 -8 -8 -5 -4 2 -6 24 -3 48 l5 43 7 -35 c6 -34 6
-33 8 13 0 29 -3 47 -10 47 -8 0 -7 5 1 15 20 24 4 29 -20 7 -17 -15 -31 -19
-59 -15 -27 3 -32 2 -21 -6 13 -9 12 -11 -5 -12 -17 -1 -16 -2 5 -9 l25 -7
-25 -6 c-14 -4 -34 -8 -45 -11 -11 -3 -4 -5 15 -4 59 0 62 -1 49 -15 -12 -13
-90 -11 -99 3 -5 8 -26 13 -48 11 -7 0 -10 -6 -7 -11 4 -6 11 -8 16 -5 5 4 9
1 9 -4 0 -6 -7 -11 -15 -11 -8 0 -15 -6 -15 -12 0 -9 -3 -8 -9 2 -6 8 -7 19
-4 25 4 5 -3 1 -15 -9 -27 -23 -27 -27 -4 -20 16 5 16 5 0 -8 -9 -8 -20 -27
-23 -44 -6 -28 -6 -28 9 -10 16 19 16 19 16 -2 0 -12 -4 -22 -10 -22 -5 0 -7
-6 -5 -13 3 -6 -6 -21 -20 -31 -14 -10 -25 -22 -25 -27 0 -4 32 14 72 42 39
27 78 49 85 49 7 0 13 5 13 10 0 6 10 15 23 20 12 5 32 17 45 26 22 16 22 16
23 -32 1 -27 0 -56 -1 -63 -1 -13 1 -13 14 -2 15 13 18 10 15 -16 0 -5 -6 -7
-12 -6 -14 3 -37 -61 -27 -77 4 -6 14 -8 23 -4 24 9 21 -13 -3 -26 -22 -12
-27 -36 -7 -43 7 -3 5 -6 -5 -6 -10 -1 -18 -6 -18 -11 0 -6 6 -10 14 -8 8 2
15 -1 15 -7 1 -5 -8 -11 -18 -11 -11 -1 -20 2 -19 5 3 32 -25 45 -36 16 -3 -9
-12 -12 -22 -8 -12 4 -15 3 -10 -5 4 -7 2 -12 -3 -12 -6 0 -11 6 -11 14 0 18
-17 29 -30 21 -8 -5 -8 -11 -1 -19 13 -16 -10 -51 -39 -59 -14 -4 -20 0 -21
11 0 10 -3 12 -6 5 -2 -7 3 -23 11 -35 9 -12 16 -17 16 -11 0 6 13 11 30 11
17 -1 30 -5 30 -9 0 -5 299 -9 664 -9 l663 0 12 87 c19 136 30 360 20 391 -5
15 -18 56 -29 92 -60 185 -130 346 -144 333 -5 -5 -5 3 -1 17 l7 25 -19 -23
c-18 -20 -22 -21 -34 -6 -10 12 -10 20 -1 35 9 14 10 25 2 42 -11 21 -10 21 9
-2 27 -30 26 -25 -4 35 -14 27 -24 42 -24 34 3 -32 -2 -40 -23 -41 -17 -1 -18
-3 -6 -6 10 -2 15 -10 11 -19 -4 -10 0 -13 13 -8 16 5 16 4 4 -5 -21 -15 -30
-14 -30 4 0 8 -7 15 -16 15 -8 0 -12 5 -9 10 3 6 1 10 -4 10 -6 0 -10 -11 -9
-25 1 -14 7 -24 13 -22 12 4 35 -17 35 -34 0 -7 3 -9 7 -6 3 4 15 -12 25 -35
10 -22 16 -43 13 -46 -3 -3 -5 -1 -5 5 0 6 -16 14 -35 17 -19 4 -35 12 -35 19
-1 7 -7 -1 -15 -18 l-13 -30 -1 28 c-1 16 -5 26 -11 22 -6 -4 -8 -11 -5 -16 4
-5 -4 -9 -16 -9 -18 0 -19 -2 -9 -15 10 -12 10 -15 -1 -15 -19 0 -41 15 -39
26 1 5 -3 10 -9 12 -6 2 -11 -2 -11 -8 0 -15 -31 16 -47 47 -11 22 -11 23 25
22 55 -2 62 0 62 15 0 22 -38 26 -71 8 -28 -16 -31 -16 -44 2 -8 10 -19 42
-25 70 -13 65 -29 92 -32 56 -1 -14 -2 -32 -3 -40 -2 -26 -15 -39 -32 -33 -17
7 -17 7 5 -46 3 -9 1 -12 -6 -7 -8 4 -10 2 -6 -7 3 -9 -3 -17 -16 -20 -13 -3
-19 -10 -15 -17 11 -18 -3 -57 -22 -64 -10 -3 -33 -14 -52 -25 -35 -21 -62
-15 -60 13 0 7 2 6 6 -1 2 -7 8 -13 13 -13 12 0 7 34 -7 43 -7 4 -15 23 -19
42 -4 25 -11 35 -25 35 -32 0 -21 19 26 48 51 30 53 47 8 47 -30 0 -38 -12
-19 -27 5 -3 -11 -16 -35 -27 -37 -18 -46 -19 -54 -8 -7 10 -31 14 -81 13
l-70 -1 20 -37 c11 -21 23 -38 28 -38 4 0 8 -7 8 -15 0 -12 7 -14 28 -9 15 4
30 11 33 17 4 5 25 11 48 12 31 2 44 -2 51 -15 8 -15 5 -16 -18 -12 -15 2 -32
8 -38 13 -13 10 -47 -28 -38 -43 4 -5 2 -13 -4 -17 -7 -4 -13 -18 -15 -31 -2
-14 -8 -23 -12 -22 -4 2 -11 0 -14 -5 -7 -10 -83 -34 -89 -29 -8 9 -9 77 -1
82 5 3 9 10 9 15 0 6 -4 7 -10 4 -5 -3 -10 -1 -10 5 0 6 -5 8 -11 4 -14 -8
-60 16 -53 28 3 4 -4 8 -16 8 -17 0 -20 6 -18 31 1 17 6 33 11 36 4 3 1 15 -7
28 -11 16 -12 25 -4 33 9 9 3 9 -20 2 -18 -5 -30 -5 -27 0 2 4 -4 10 -16 13
-11 3 -19 11 -18 19 5 20 -30 78 -46 78 -8 0 -15 -5 -15 -11 0 -5 5 -7 10 -4
6 3 10 1 10 -4 0 -6 -9 -11 -21 -11 -12 0 -18 4 -13 11 3 6 0 15 -7 20 -17 11
-21 11 -38 0z m679 -352 c0 -5 -5 -7 -10 -4 -10 6 -19 -9 -24 -42 -2 -10 -9
-18 -17 -18 -22 0 -22 -20 1 -21 11 -1 18 2 15 5 -2 4 10 12 26 18 24 10 31 9
36 -3 3 -8 13 -14 22 -15 12 0 10 -3 -6 -11 -13 -6 -23 -15 -23 -21 0 -5 -7
-7 -15 -3 -8 3 -15 0 -15 -7 0 -8 -4 -6 -10 3 -8 13 -10 12 -10 -2 0 -10 -5
-18 -12 -18 -9 0 -9 -3 0 -12 14 -14 16 -38 2 -38 -5 0 -7 6 -4 14 9 22 -14
29 -46 12 -26 -12 -30 -12 -30 0 0 8 -7 14 -15 14 -8 0 -15 3 -15 6 0 12 34
33 53 34 21 0 23 20 2 20 -8 0 -15 6 -15 14 0 9 -7 12 -21 9 -16 -4 -17 -8 -7
-14 10 -7 11 -9 0 -9 -7 0 -10 -4 -7 -10 3 -5 -3 -20 -14 -32 -20 -21 -21 -21
-41 -3 -22 20 -90 31 -90 15 0 -6 -5 -10 -11 -10 -6 0 -9 7 -5 15 7 19 -1 19
-38 0 -24 -13 -27 -13 -23 0 4 9 1 12 -8 9 -19 -8 -55 14 -55 32 0 14 2 14 16
0 21 -21 31 -20 37 4 4 15 14 20 42 20 20 0 46 5 57 11 12 7 18 7 14 1 -11
-18 6 -44 25 -39 11 3 17 1 13 -4 -3 -5 5 -9 18 -9 18 0 20 2 8 10 -21 13 -6
23 35 24 19 1 35 4 35 9 0 4 8 2 19 -5 15 -9 23 -8 45 9 18 14 22 23 14 26 -8
3 -6 6 5 6 9 1 17 6 17 11 0 6 7 10 15 10 8 0 15 -5 15 -11z m-227 -156 c5 -3
3 -10 -7 -15 -9 -5 -16 -16 -16 -23 0 -8 -5 -15 -11 -15 -6 0 -8 -14 -5 -36 6
-36 -7 -74 -25 -74 -6 0 -9 7 -5 15 3 8 1 15 -5 15 -7 0 -9 -11 -5 -27 5 -24
4 -26 -6 -12 -7 9 -19 14 -25 12 -7 -3 -13 3 -13 12 0 9 -4 14 -9 11 -12 -8
-34 21 -26 34 3 5 -1 10 -9 10 -8 0 -18 5 -22 12 -5 8 0 9 14 6 19 -5 21 -3
16 19 -6 22 -4 24 15 18 15 -4 21 -2 21 9 0 8 10 17 23 19 16 3 13 5 -10 6
-18 0 -33 5 -33 11 0 10 125 4 143 -7z"/>
</g>
</svg>
